# xmcd CD database file
#
# Track frame offsets:
#	150
#	13255
#	35322
#	52120
#	73540
#	92545
#	106329
#	130232
#	147612
#	164775
#
# Disc length: 2457 seconds
#
# Revision: 2
# Processed by: cddbd v1.4PL0 Copyright (c) Steve Scherf et al.
# Submitted via: CDex 1.40Release
#
DISCID=9109970a
DTITLE=Marty McCall - Images of Faith
DYEAR=1997
DGENRE=Praise and Worship
TTITLE0=Whatever Your Name
TTITLE1=O Taste the Lord
TTITLE2=Tribesong
TTITLE3=Icon
TTITLE4=Images of Faith
TTITLE5=Angels
TTITLE6=Bethlehem
TTITLE7=Caedmon's Hymn/Christ is Risen
TTITLE8=There is a River
TTITLE9=Enough
EXTD=YEAR: 1997
EXTT0=
EXTT1=
EXTT2=
EXTT3=
EXTT4=
EXTT5=
EXTT6=
EXTT7=
EXTT8=
EXTT9=
PLAYORDER=
